<svg xmlns="http://www.w3.org/2000/svg" viewBox="0 0 50 50" width="50" height="50" preserveAspectRatio="xMidYMid meet" style="width: 100%; height: 100%; transform: translate3d(0px, 0px, 0px);"><defs><clipPath id="__lottie_element_2"><rect width="50" height="50" x="0" y="0"></rect></clipPath></defs><g clip-path="url(#__lottie_element_2)"><g transform="matrix(1,0,0,1,0,0)" opacity="1" style="display: block;"><g opacity="1" transform="matrix(1,0,0,1,38.00699996948242,31.988000869750977)"><path stroke-linecap="round" stroke-linejoin="round" fill-opacity="0" stroke="rgb(0,0,0)" stroke-opacity="1" stroke-width="2" d=" M-4.989999771118164,5.98799991607666 C0.39399999380111694,5.480999946594238 4.989999771118164,3.752000093460083 4.989999771118164,-0.9110000133514404 C4.989999771118164,-3.739000082015991 3.3359999656677246,-5.98799991607666 -1.5390000343322754,-5.98799991607666 C-1.5390000343322754,-5.98799991607666 -3.569000005722046,-5.98799991607666 -3.569000005722046,-5.98799991607666"></path></g><g opacity="1" transform="matrix(1,0,0,1,23,34)"><path stroke-linecap="round" stroke-linejoin="round" fill-opacity="0" stroke="rgb(0,0,0)" stroke-opacity="1" stroke-width="2" d=" M-6.748000144958496,15 C-7.697000026702881,15 -8.407999992370605,14.168999671936035 -8.470999717712402,13.234999656677246 C-9.706999778747559,-5.033999919891357 -12.491999626159668,-13.538999557495117 -13,-15 C-13,-15 13,-15 13,-15 C12.491999626159668,-13.538999557495117 9.706999778747559,-5.033999919891357 8.470999717712402,13.234999656677246 C8.407999992370605,14.168999671936035 7.697000026702881,15 6.748000144958496,15 C6.748000144958496,15 -6.748000144958496,15 -6.748000144958496,15z"></path></g></g><g transform="matrix(1,0,0,1,0,0)" opacity="1" style="display: block;"><g opacity="1" transform="matrix(1,0,0,1,27.003999710083008,11)"><path stroke-linecap="round" stroke-linejoin="round" fill-opacity="0" stroke="rgb(0,0,0)" stroke-opacity="1" stroke-width="2" d=" M2.003999948501587,-4 C2.003999948501587,0.5 -2.003999948501587,-0.36399999260902405 -2.003999948501587,4"></path></g><g opacity="1" transform="matrix(1,0,0,1,21.007999420166016,8)"><path stroke-linecap="round" stroke-linejoin="round" fill-opacity="0" stroke="rgb(0,0,0)" stroke-opacity="1" stroke-width="2" d=" M2.992000102996826,-6 C2.992000102996826,0.7039999961853027 -2.992000102996826,-0.574999988079071 -2.992000102996826,6"></path></g></g></g></svg>